<?xml version="1.0" encoding="utf-8"?>
<!-- Generator: Adobe Illustrator 24.3.0, SVG Export Plug-In . SVG Version: 6.00 Build 0)  -->
<svg version="1.1" id="a4baa7a1-c1fd-441f-b894-2b913f22f48f"
	 xmlns="http://www.w3.org/2000/svg" xmlns:xlink="http://www.w3.org/1999/xlink" x="0px" y="0px" viewBox="0 0 633.4 455.8"
	 style="enable-background:new 0 0 633.4 455.8;" xml:space="preserve">
<style type="text/css">
	.st0{fill:#F2F2F2;}
	.st1{fill:#FFFFFF;}
	.st2{fill:#3F3D56;stroke:#000000;stroke-miterlimit:10;}
	.st3{fill:#FFBE33;}
	.st4{opacity:0.2;enable-background:new    ;}
	.st5{fill:#3F3D56;}
	.st6{fill:#FFFFFF;stroke:#000000;stroke-miterlimit:10;}
	.st7{fill:#FFDC64;}
	.st8{fill:#FFC850;}
	.st9{fill:#826469;}
	.st10{fill:#E4EAF8;}
	.st11{fill:#6E555E;}
	.st12{fill:#5F4B55;}
	.st13{fill:#333E40;}
	.st14{fill:#D9D9D9;}
	.st15{fill:#F0F0F0;}
	.st16{fill:#FFCE1C;}
	.st17{fill:#FAA330;}
	.st18{fill:#3B484A;}
</style>
<path class="st0" d="M144.8,135.5c1.3,0.8,2.7,1.7,4,2.6c13.9,34.9,21.8,71.9,23.5,109.5c0.2,4.3,0.3,8.7,0.3,13
	c0.1,32.5-4.6,64.8-14,95.8c-0.5,1.6-1,3.3-1.5,4.9c-0.4,1.2-0.7,2.3-1.2,3.5c-0.4,0.6-0.9,1.2-1.3,1.8c0,0-0.1,0.1-0.1,0.1
	c-0.2,0.2-0.3,0.5-0.5,0.7c-0.7,1-1.5,2-2.2,3l0.6,0l1.6,0.1l0,0c-0.5,0-1.1,0-1.6-0.1c-0.2,0-0.4,0-0.6,0c-0.2,0-0.4,0-0.5,0
	c-22.6-0.6-45.7-1.7-66.3-11c-21.5-9.7-39.8-30.6-38.9-54.2c0.1-3.1,0.6-6.2,1.4-9.1c0.3-1.2,0.7-2.5,1.1-3.7
	c8-23.3,33.3-35.7,56.6-27.7c7.7,2.7,14.6,7.4,19.8,13.7c-6.2-24.2-32.7-36.6-56.5-44.1c-23.9-7.5-50.7-15.4-62.9-37.2
	c-6.8-12.2-7-26.3-2.5-39.4c0.1-0.4,0.3-0.8,0.4-1.2c5.6-15.4,16.8-28.1,31.4-35.6c27.3-13.5,60.4-8.7,88.4,3.3
	C130.7,127.4,137.9,131.2,144.8,135.5z"/>
<path class="st1" d="M66.6,292.5c21.4,2,41.7,10.8,57.7,25.1c13.7,12.4,23.7,28.2,29.2,45.8c0.3,1,0.6,2,0.9,3
	c0.5-1,1.1-2.1,1.6-3.1c0.3-0.7,0.7-1.3,1-2c-0.4,1.2-0.7,2.3-1.2,3.5c-0.4,0.6-0.9,1.2-1.3,1.8c0,0-0.1,0.1-0.1,0.1
	c-0.2,0.2-0.3,0.5-0.5,0.7c-0.7,1-1.5,2-2.2,3l0.6,0l1.6,0.1l0,0c-0.5,0-1.1,0-1.6-0.1c-0.2,0-0.4,0-0.6,0c-0.1-0.3-0.1-0.6-0.2-0.9
	c-11.5-47-55.9-78.4-104.1-73.4c0.3-1.2,0.7-2.5,1.1-3.7C54.5,291.9,60.6,291.9,66.6,292.5z"/>
<path class="st1" d="M137.8,202.8c8.6,6.4,16.2,14.1,22.6,22.8c3.3,4.6,6.2,9.5,8.6,14.7c1.1,2.4,2.2,4.8,3.1,7.3
	c0.2,4.3,0.3,8.7,0.3,13c-0.8-3.3-1.8-6.5-2.9-9.7c-0.6-1.7-1.3-3.4-2-5.1c-7.9-18.9-22.1-33.8-38.9-45.1
	c-18-12.1-38.3-21.2-58.9-28c-21.1-7-42.9-11.3-65.1-13c-1-0.1-1.8-1-1.8-2c0-0.4,0.1-0.9,0.4-1.2c0.3-0.3,0.8-0.4,1.2-0.4
	c2.7,0.2,5.5,0.4,8.2,0.7c22.7,2.3,45,7.5,66.4,15.3C99.9,179.6,120.3,189.4,137.8,202.8z"/>
<circle class="st0" cx="25.5" cy="90.8" r="7.6"/>
<rect x="147" y="160.8" class="st1" width="344" height="293"/>
<path class="st2" d="M492,454.8H146v-295h346V454.8z M148,452.8h342v-291H148V452.8z"/>
<rect x="276" y="217.8" class="st3" width="86" height="236"/>
<rect x="276" y="217.8" class="st3" width="86" height="236"/>
<polygon class="st4" points="148,182.3 148,229.8 491,251.8 490,193.1 "/>
<rect x="127" y="133.8" class="st1" width="384" height="84"/>
<path class="st2" d="M512,218.8H126v-86h386V218.8z M128,216.8h382v-82H128V216.8z"/>
<rect x="276" y="125.8" class="st3" width="86" height="91"/>
<path class="st3" d="M309.8,46.4c22.7,33.7,1.3,87.8,1.3,87.8s-58.2-0.4-80.9-34.1s-1.3-87.8-1.3-87.8S287.1,12.8,309.8,46.4z"/>
<path class="st3" d="M320.3,46.4c-22.7,33.7-1.3,87.8-1.3,87.8s58.2-0.4,80.9-34.1s1.3-87.8,1.3-87.8S343,12.8,320.3,46.4z"/>
<circle class="st5" cx="259" cy="62.8" r="9"/>
<circle class="st5" cx="313" cy="153.8" r="9"/>
<circle class="st5" cx="313" cy="350.8" r="9"/>
<circle class="st5" cx="283" cy="95.8" r="6"/>
<circle class="st5" cx="373" cy="44.8" r="6"/>
<circle class="st5" cx="334" cy="185.8" r="6"/>
<circle class="st5" cx="298" cy="263.8" r="6"/>
<circle class="st5" cx="329" cy="290.8" r="6"/>
<circle class="st5" cx="322" cy="403.8" r="6"/>
<rect x="439.2" y="298.3" class="st1" width="183" height="155.9"/>
<path class="st2" d="M622.8,454.8H438.7v-157h184.1V454.8z M439.8,453.7h182V298.9h-182V453.7z"/>
<rect x="507.9" y="328.7" class="st3" width="45.8" height="125.6"/>
<rect x="507.9" y="328.7" class="st3" width="45.8" height="125.6"/>
<polygon class="st4" points="439.8,309.8 439.8,335.1 622.3,346.7 621.7,315.5 "/>
<rect x="428.6" y="284" class="st6" width="204.3" height="44.7"/>
<path class="st5" d="M633.4,329.2H428v-45.8h205.4V329.2z M429.1,328.1h203.3v-43.6H429.1V328.1z"/>
<rect x="507.9" y="279.7" class="st3" width="45.8" height="48.4"/>
<path class="st3" d="M525.8,237.5c12.1,17.9,0.7,46.7,0.7,46.7s-31-0.2-43-18.1s-0.7-46.7-0.7-46.7S513.8,219.6,525.8,237.5z"/>
<path class="st3" d="M531.4,237.5c-12.1,17.9-0.7,46.7-0.7,46.7s31-0.2,43-18.1s0.7-46.7,0.7-46.7S543.5,219.6,531.4,237.5z"/>
<circle class="st5" cx="498.8" cy="246.2" r="4.8"/>
<circle class="st5" cx="527.5" cy="294.6" r="4.8"/>
<circle class="st5" cx="527.5" cy="399.4" r="4.8"/>
<ellipse transform="matrix(0.1602 -0.9871 0.9871 0.1602 169.3046 726.4688)" class="st5" cx="511.6" cy="263.7" rx="3.2" ry="3.2"/>
<circle class="st5" cx="559.5" cy="236.6" r="3.2"/>
<circle class="st5" cx="538.7" cy="311.6" r="3.2"/>
<circle class="st5" cx="519.6" cy="353.1" r="3.2"/>
<circle class="st5" cx="536.1" cy="367.5" r="3.2"/>
<circle class="st5" cx="532.3" cy="427.6" r="3.2"/>
<g id="honey_2_3" transform="translate(1103.15 819.684)">
	<path id="Path_41-3" class="st7" d="M-975.9-442.3l-9.1-7.7h-60.4l-9.1,7.7c-1.8,1.5-2.9,3.6-3,6v64.1c0,3.7,3.6,6.8,8.1,6.8h68.5
		c4.5,0,8.1-3,8.1-6.8v-64.1C-973-438.7-974-440.8-975.9-442.3z"/>
	<path id="Path_42-3" class="st8" d="M-975.9-442.3l-9.1-7.7h-60.4l-9.1,7.7c0,0-0.1,0.1-0.1,0.1l0,0c-1.8,1.4-2.8,3.6-2.9,5.9v64.1
		c0,3.7,3.6,6.8,8.1,6.8h22.2c-4.5,0-8.1-3-8.1-6.8v-64.1c0-2.3,1.1-4.5,2.9-6l0.5-0.4c0.8-0.6,1.7-1.1,2.7-1.3
		c1.4,0.1,2.8,0.5,4,1.2c6.4,2.9,13.7,2.9,20.1,0c3.4-1.6,7.4-1.6,10.8,0c3.1,1.5,6.6,2.2,10.1,2.2
		C-981.4-440.6-978.5-441.1-975.9-442.3C-975.8-442.2-975.8-442.3-975.9-442.3z"/>
	<path id="Path_43-3" class="st9" d="M-989-385.8h-52.4c-2.2,0-4-1.5-4-3.4V-428c0-1.9,1.8-3.4,4-3.4h52.4c2.2,0,4,1.5,4,3.4v38.9
		C-985-387.3-986.8-385.8-989-385.8z"/>
	<g id="Group_5-3" transform="translate(32.099 59.008)">
		<path id="Path_44-3" class="st10" d="M-1059.4-460c-1,0-2-0.3-2.8-1c-1.3-1-1.6-2.9-0.6-4.2c0.2-0.2,0.4-0.4,0.6-0.6l6-5.1
			c1.7-1.3,4-1.3,5.7,0c1.3,1,1.6,2.9,0.6,4.2c-0.2,0.2-0.4,0.4-0.6,0.6l-6,5.1C-1057.4-460.3-1058.4-460-1059.4-460z"/>
		<path id="Path_45-3" class="st10" d="M-1035.2-460c1,0,2-0.3,2.8-1c1.3-1,1.6-2.9,0.6-4.2c-0.2-0.2-0.4-0.4-0.6-0.6l-6-5.1
			c-1.7-1.3-4-1.3-5.7,0c-1.3,1-1.6,2.9-0.6,4.2c0.2,0.2,0.4,0.4,0.6,0.6l6,5.1C-1037.3-460.3-1036.3-460-1035.2-460z"/>
	</g>
	<path id="Path_46-3" class="st11" d="M-968.9-448.3l-16.1-13.5h-60.4l-16.1,13.5c7.7,0,7.7,3.4,15.4,3.4c7.7,0,7.7-3.4,15.4-3.4
		c7.7,0,7.7,3.4,15.4,3.4s7.7-3.4,15.4-3.4c7.7,0,7.7,3.4,15.5,3.4S-976.6-448.3-968.9-448.3z"/>
	<path id="Path_47-3" class="st12" d="M-979-454.9l-6-6.9h-60.4l-16.1,13.5c7.7,0,7.7,3.4,15.4,3.4c7.7,0,7.7-3.4,15.4-3.4
		c0.2,0,0.4,0,0.6,0c0-0.2,0.1-0.4,0.2-0.6l2.2-3.4c1.2-1.7,3.2-2.7,5.3-2.7L-979-454.9z"/>
	<path id="Path_48-3" class="st9" d="M-985-470.2h-60.4c-2.2,0-4,1.5-4,3.4v3.4c0,1.9,1.8,3.4,4,3.4h60.4c2.2,0,4-1.5,4-3.4v-3.4
		C-981-468.7-982.8-470.2-985-470.2z"/>
	<g id="Group_6-3" transform="translate(13.971 1.58)">
		<path id="Path_49-3" class="st11" d="M-1045.3-465.1v-3.4c0-1.9,1.8-3.4,4-3.4h-18.1c-2.2,0-4,1.5-4,3.4v3.4c0,1.9,1.8,3.4,4,3.4
			h18.1C-1043.5-461.7-1045.3-463.2-1045.3-465.1z"/>
		<path id="Path_50-3" class="st11" d="M-1055.4-433c-2.2,0-4,1.5-4,3.4v38.9c0,1.9,1.8,3.4,4,3.4h6V-433L-1055.4-433z"/>
		<ellipse id="Ellipse_5-3" class="st11" cx="-1029.2" cy="-414.4" rx="6" ry="5.1"/>
	</g>
	<ellipse id="Ellipse_6-3" class="st7" cx="-1015.2" cy="-403.5" rx="6" ry="7.6"/>
	<path id="Path_51-3" d="M-967.6-449.4l-13-10.9c0.9-0.8,1.4-2,1.4-3.2v-3.4c0-2.7-2.7-5-5.9-5h-60.4c-3.3,0-5.9,2.2-5.9,5v3.4
		c0,1.2,0.5,2.4,1.4,3.2l-13,10.9c-0.5,0.4-0.7,1.1-0.4,1.7c0.4,0.6,1,1,1.7,1c2.4-0.1,4.7,0.5,6.8,1.5c0.2,0.1,0.4,0.2,0.6,0.3
		l-1.8,1.5c-2.2,1.7-3.5,4.3-3.5,7.1v64.1c0,4.6,4.5,8.3,9.9,8.3h68.5c5.5,0,9.9-3.7,9.9-8.3v-64.1c0-2.8-1.3-5.4-3.5-7.1l-1.8-1.5
		l0.6-0.3c2.1-1.1,4.5-1.6,6.9-1.5c0.7,0,1.4-0.4,1.7-1C-966.9-448.3-967-449-967.6-449.4z M-977.2-441.2c1.5,1.2,2.4,3,2.4,4.9
		v64.1c0,2.9-2.8,5.2-6.2,5.2h-68.5c-3.4,0-6.2-2.3-6.2-5.2v-64.1c0-1.9,0.9-3.7,2.4-4.9l3-2.5c1.4,0.3,2.8,0.4,4.1,0.4
		c3,0.1,5.9-0.6,8.6-1.9c4.3-2,9.4-2,13.7,0c5.5,2.5,11.7,2.5,17.2,0c4.3-2,9.4-2,13.7,0c2.7,1.3,5.6,1.9,8.6,1.9
		c1.4,0,2.8-0.1,4.2-0.4L-977.2-441.2z M-977.5-448c-4.3,2-9.4,2-13.7,0c-5.5-2.5-11.7-2.5-17.2,0c-4.3,2-9.4,2-13.7,0
		c-5.5-2.5-11.7-2.5-17.2,0c-4.3,2-9.4,2-13.7,0c-1.4-0.7-2.9-1.2-4.5-1.5l10.9-9.1c0.4,0.1,0.7,0.1,1.1,0.1h48.3
		c1,0.1,1.8-0.6,1.9-1.6c-0.1-1-0.9-1.7-1.9-1.6h-48.3c-1.1,0.1-2-0.7-2.1-1.8v-3.4c0.1-1.1,1.1-1.9,2.1-1.8h60.4
		c1.1-0.1,2,0.7,2.1,1.8v3.4c-0.1,1.1-1.1,1.9-2.1,1.8h-4c-1-0.1-1.8,0.6-1.9,1.6c0.1,1,0.9,1.7,1.9,1.6h4c0.4,0,0.8,0,1.1-0.1
		l10.9,9.1C-974.5-449.2-976.1-448.7-977.5-448L-977.5-448z"/>
	<path id="Path_52-3" d="M-989-433h-4c-0.9-0.1-1.7,0.5-1.8,1.3s0.5,1.7,1.3,1.8c0.2,0,0.3,0,0.5,0h4c1.1-0.1,2,0.7,2.1,1.8v38.8
		c-0.1,1.1-1.1,1.9-2.1,1.8h-52.4c-1.1,0.1-2-0.7-2.1-1.8V-428c0.1-1.1,1.1-1.9,2.1-1.8h40.3c0.9,0.1,1.7-0.5,1.8-1.3
		c0.1-0.9-0.5-1.7-1.3-1.8c-0.2,0-0.3,0-0.5,0h-40.3c-3.3,0-5.9,2.2-5.9,5v38.8c0,2.7,2.7,5,5.9,5h52.4c3.3,0,5.9-2.2,5.9-5V-428
		C-983.1-430.7-985.8-433-989-433z"/>
	<path id="Path_53-3" d="M-1007.4-413.9c-0.3-1.3-1-2.5-2-3.4l1.9-3.2c0.4-0.7,0.1-1.6-0.6-2c-0.1,0-0.2-0.1-0.3-0.1
		c-0.9-0.4-2-0.1-2.5,0.7l-1.7,2.9c-1.7-0.5-3.6-0.5-5.3,0l-1.7-2.9c-0.6-0.8-1.6-1.1-2.5-0.7c-0.8,0.2-1.2,1.1-1,1.8
		c0,0.1,0.1,0.2,0.1,0.3l1.9,3.2c-1,0.9-1.7,2.1-2,3.4c-1,0.2-2,0.7-2.8,1.3l-5.7,4.8c-1.9,1.5-2.3,4.3-0.8,6.2
		c0.2,0.3,0.5,0.6,0.8,0.8c2.5,1.9,5.9,1.9,8.4,0l0.3-0.2c0.9,3.9,3.9,6.7,7.7,6.7s6.7-2.8,7.7-6.7l0.3,0.2c2.5,1.9,5.9,1.9,8.4,0
		c1.9-1.5,2.3-4.3,0.8-6.2c-0.2-0.3-0.5-0.6-0.8-0.8l-5.7-4.8C-1005.4-413.3-1006.4-413.7-1007.4-413.9z M-1015.2-409.5
		c1.8,0,3.1,1.6,3.8,3.6h-7.5C-1018.3-407.9-1017-409.5-1015.2-409.5L-1015.2-409.5z M-1011.1-412.8c0,0.4-0.1,0.9-0.3,1.2
		c-2.4-1.5-5.4-1.5-7.8,0c-0.2-0.4-0.3-0.8-0.3-1.2c0-1.9,1.9-3.5,4.2-3.5C-1012.9-416.3-1011.1-414.7-1011.1-412.8L-1011.1-412.8z
		 M-1027.3-402.6c-0.6,0-1.1-0.2-1.5-0.5c-0.7-0.5-0.8-1.5-0.3-2.2c0.1-0.1,0.2-0.2,0.3-0.3l5.7-4.8c0.1-0.1,0.3-0.2,0.4-0.3
		c0.3,0.6,0.6,1.2,1.1,1.7c-0.7,1.1-1.1,2.2-1.3,3.5l-2.8,2.4C-1026.2-402.7-1026.7-402.6-1027.3-402.6L-1027.3-402.6z
		 M-1015.2-397.5c-2.2,0-3.9-2.7-4.1-5.3h8.2C-1011.4-400.1-1013-397.5-1015.2-397.5z M-1001-404.4c0,0.5-0.2,1-0.6,1.3
		c-0.9,0.7-2.1,0.7-3,0l-2.8-2.4c-0.2-1.2-0.7-2.4-1.3-3.5c0.4-0.5,0.8-1.1,1.1-1.7c0.1,0.1,0.3,0.2,0.4,0.3l5.7,4.8
		C-1001.2-405.3-1001-404.9-1001-404.4L-1001-404.4z"/>
	<path id="Path_54-3" d="M-985-373.8h-48.3c-0.9-0.1-1.7,0.5-1.8,1.3c-0.1,0.9,0.5,1.7,1.3,1.8c0.2,0,0.3,0,0.5,0h48.3
		c0.9,0.1,1.7-0.5,1.8-1.3c0.1-0.9-0.5-1.7-1.3-1.8C-984.7-373.9-984.8-373.9-985-373.8z"/>
	<path id="Path_55-3" d="M-1041.4-373.8h-4c-0.9-0.1-1.7,0.5-1.8,1.3c-0.1,0.9,0.5,1.7,1.3,1.8c0.2,0,0.3,0,0.5,0h4
		c0.9,0.1,1.7-0.5,1.8-1.3c0.1-0.9-0.5-1.7-1.3-1.8C-1041.1-373.9-1041.2-373.9-1041.4-373.8z"/>
</g>
<g id="honey_2_3_1_" transform="translate(1103.15 819.684)">
	<path id="Path_41-3_1_" class="st7" d="M-598.6-765.3l-9.1-7.7h-60.4l-9.1,7.7c-1.8,1.5-2.9,3.6-3,6v64.1c0,3.7,3.6,6.8,8.1,6.8
		h68.5c4.4,0,8.1-3,8.1-6.8v-64.1C-595.7-761.7-596.8-763.8-598.6-765.3z"/>
	<path id="Path_42-3_1_" class="st8" d="M-598.6-765.3l-9.1-7.7h-60.4l-9.1,7.7c0,0-0.1,0.1-0.1,0.1l0,0c-1.8,1.4-2.8,3.6-2.9,5.9
		v64.1c0,3.7,3.6,6.8,8.1,6.8h22.2c-4.4,0-8.1-3-8.1-6.8v-64.1c0-2.3,1.1-4.5,3-6l0.5-0.4c0.8-0.6,1.7-1.1,2.7-1.3
		c1.4,0.1,2.8,0.5,4,1.2c6.4,2.9,13.7,2.9,20.1,0c3.4-1.6,7.4-1.6,10.8,0c3.1,1.5,6.6,2.2,10.1,2.2
		C-604.1-763.6-601.2-764.1-598.6-765.3C-598.5-765.2-598.5-765.3-598.6-765.3z"/>
	<path id="Path_43-3_1_" class="st9" d="M-611.7-708.8h-52.4c-2.2,0-4-1.5-4-3.4V-751c0-1.9,1.8-3.4,4-3.4h52.4c2.2,0,4,1.5,4,3.4
		v38.9C-607.7-710.3-609.5-708.8-611.7-708.8z"/>
	<g id="Group_5-3_1_" transform="translate(32.099 59.008)">
		<path id="Path_44-3_1_" class="st10" d="M-682.1-783c-1,0-2-0.3-2.8-1c-1.3-1-1.6-2.9-0.6-4.2c0.2-0.2,0.4-0.4,0.6-0.6l6-5.1
			c1.7-1.3,4-1.3,5.7,0c1.3,1,1.6,2.9,0.6,4.2c-0.2,0.2-0.4,0.4-0.6,0.6l-6,5.1C-680.1-783.3-681.1-783-682.1-783z"/>
		<path id="Path_45-3_1_" class="st10" d="M-657.9-783c1,0,2-0.3,2.8-1c1.3-1,1.6-2.9,0.6-4.2c-0.2-0.2-0.4-0.4-0.6-0.6l-6-5.1
			c-1.7-1.3-4-1.3-5.7,0c-1.3,1-1.6,2.9-0.6,4.2c0.2,0.2,0.4,0.4,0.6,0.6l6,5.1C-660-783.3-659-783-657.9-783z"/>
	</g>
	<path id="Path_46-3_1_" class="st11" d="M-591.6-771.3l-16.1-13.5h-60.4l-16.1,13.5c7.7,0,7.7,3.4,15.4,3.4s7.7-3.4,15.4-3.4
		c7.7,0,7.7,3.4,15.4,3.4s7.7-3.4,15.4-3.4c7.7,0,7.7,3.4,15.4,3.4C-599.3-767.9-599.3-771.3-591.6-771.3z"/>
	<path id="Path_47-3_1_" class="st12" d="M-601.7-777.9l-6-6.9h-60.4l-16.1,13.5c7.7,0,7.7,3.4,15.4,3.4s7.7-3.4,15.4-3.4
		c0.2,0,0.4,0,0.6,0c0-0.2,0.1-0.4,0.2-0.6l2.2-3.4c1.2-1.7,3.2-2.7,5.3-2.7L-601.7-777.9z"/>
	<path id="Path_48-3_1_" class="st9" d="M-607.7-793.2h-60.4c-2.2,0-4,1.5-4,3.4v3.4c0,1.9,1.8,3.4,4,3.4h60.4c2.2,0,4-1.5,4-3.4
		v-3.4C-603.7-791.7-605.5-793.2-607.7-793.2z"/>
	<g id="Group_6-3_1_" transform="translate(13.971 1.58)">
		<path id="Path_49-3_1_" class="st11" d="M-668-788.1v-3.4c0-1.9,1.8-3.4,4-3.4h-18.1c-2.2,0-4,1.5-4,3.4v3.4c0,1.9,1.8,3.4,4,3.4
			h18.1C-666.2-784.7-668-786.2-668-788.1z"/>
		<path id="Path_50-3_1_" class="st11" d="M-678.1-756c-2.2,0-4,1.5-4,3.4v38.9c0,1.9,1.8,3.4,4,3.4h6V-756L-678.1-756z"/>
		<ellipse id="Ellipse_5-3_1_" class="st11" cx="-651.9" cy="-737.4" rx="6" ry="5.1"/>
	</g>
	<ellipse id="Ellipse_6-3_1_" class="st7" cx="-637.9" cy="-726.5" rx="6" ry="7.6"/>
	<path id="Path_51-3_1_" d="M-590.3-772.4l-13-10.9c0.9-0.8,1.4-2,1.4-3.2v-3.4c0-2.7-2.7-5-5.9-5h-60.4c-3.3,0-5.9,2.2-5.9,5v3.4
		c0,1.2,0.5,2.4,1.4,3.2l-13,10.9c-0.5,0.4-0.7,1.1-0.4,1.7c0.4,0.6,1,1,1.7,1c2.4-0.1,4.7,0.5,6.8,1.5c0.2,0.1,0.4,0.2,0.6,0.3
		l-1.8,1.5c-2.2,1.7-3.5,4.3-3.5,7.1v64.1c0,4.6,4.5,8.3,9.9,8.3h68.5c5.5,0,9.9-3.7,9.9-8.3v-64.1c0-2.8-1.3-5.4-3.5-7.1l-1.8-1.5
		l0.6-0.3c2.1-1.1,4.5-1.6,6.9-1.5c0.7,0,1.4-0.4,1.7-1C-589.6-771.3-589.7-772-590.3-772.4z M-599.9-764.2c1.5,1.2,2.4,3,2.4,4.9
		v64.1c0,2.9-2.8,5.2-6.2,5.2h-68.5c-3.4,0-6.2-2.3-6.2-5.2v-64.1c0-1.9,0.9-3.7,2.4-4.9l3-2.5c1.4,0.3,2.8,0.4,4.1,0.4
		c3,0.1,5.9-0.6,8.6-1.9c4.3-2,9.4-2,13.7,0c5.5,2.5,11.7,2.5,17.2,0c4.3-2,9.4-2,13.7,0c2.7,1.3,5.6,1.9,8.6,1.9
		c1.4,0,2.8-0.1,4.2-0.4L-599.9-764.2z M-600.2-771c-4.3,2-9.4,2-13.7,0c-5.5-2.5-11.7-2.5-17.2,0c-4.3,2-9.4,2-13.7,0
		c-5.5-2.5-11.7-2.5-17.2,0c-4.3,2-9.4,2-13.7,0c-1.4-0.7-2.9-1.2-4.5-1.5l10.9-9.1c0.4,0.1,0.7,0.1,1.1,0.1h48.3
		c1,0.1,1.8-0.6,1.9-1.6c-0.1-1-0.9-1.7-1.9-1.6h-48.3c-1.1,0.1-2-0.7-2.1-1.8v-3.4c0.1-1.1,1.1-1.9,2.1-1.8h60.4
		c1.1-0.1,2,0.7,2.1,1.8v3.4c-0.1,1.1-1.1,1.9-2.1,1.8h-4c-1-0.1-1.8,0.6-1.9,1.6c0.1,1,0.9,1.7,1.9,1.6h4c0.4,0,0.8,0,1.1-0.1
		l10.9,9.1C-597.3-772.2-598.8-771.7-600.2-771L-600.2-771z"/>
	<path id="Path_52-3_1_" d="M-611.7-756h-4c-0.9-0.1-1.7,0.5-1.8,1.3c-0.1,0.9,0.5,1.7,1.3,1.8c0.2,0,0.3,0,0.5,0h4
		c1.1-0.1,2,0.7,2.1,1.8v38.8c-0.1,1.1-1.1,1.9-2.1,1.8h-52.4c-1.1,0.1-2-0.7-2.1-1.8V-751c0.1-1.1,1.1-1.9,2.1-1.8h40.3
		c0.9,0.1,1.7-0.5,1.8-1.3c0.1-0.9-0.5-1.7-1.3-1.8c-0.2,0-0.3,0-0.5,0h-40.3c-3.3,0-5.9,2.2-5.9,5v38.8c0,2.7,2.7,5,5.9,5h52.4
		c3.3,0,5.9-2.2,5.9-5V-751C-605.8-753.7-608.5-756-611.7-756z"/>
	<path id="Path_53-3_1_" d="M-630.1-736.9c-0.3-1.3-1-2.5-2-3.4l1.9-3.2c0.4-0.7,0.1-1.6-0.6-2c-0.1,0-0.2-0.1-0.3-0.1
		c-0.9-0.4-2-0.1-2.5,0.7l-1.7,2.9c-1.7-0.5-3.6-0.5-5.3,0l-1.7-2.9c-0.6-0.8-1.6-1.1-2.5-0.7c-0.8,0.2-1.2,1.1-1,1.8
		c0,0.1,0.1,0.2,0.1,0.3l1.9,3.2c-1,0.9-1.7,2.1-2,3.4c-1,0.2-2,0.7-2.8,1.3l-5.7,4.8c-1.9,1.5-2.3,4.3-0.8,6.2
		c0.2,0.3,0.5,0.6,0.8,0.8c2.5,1.9,5.9,1.9,8.4,0l0.3-0.2c0.9,3.9,3.9,6.7,7.7,6.7c3.7,0,6.7-2.8,7.7-6.7l0.3,0.2
		c2.5,1.9,5.9,1.9,8.4,0c1.9-1.5,2.3-4.3,0.8-6.2c-0.2-0.3-0.5-0.6-0.8-0.8l-5.7-4.8C-628.2-736.3-629.1-736.7-630.1-736.9z
		 M-637.9-732.5c1.8,0,3.1,1.6,3.8,3.6h-7.5C-641.1-730.9-639.7-732.5-637.9-732.5L-637.9-732.5z M-633.8-735.8
		c0,0.4-0.1,0.9-0.3,1.2c-2.4-1.5-5.4-1.5-7.8,0c-0.2-0.4-0.3-0.8-0.3-1.2c0-1.9,1.9-3.5,4.2-3.5
		C-635.6-739.3-633.8-737.7-633.8-735.8L-633.8-735.8z M-650-725.6c-0.6,0-1.1-0.2-1.5-0.5c-0.7-0.5-0.8-1.5-0.3-2.2
		c0.1-0.1,0.2-0.2,0.3-0.3l5.7-4.8c0.1-0.1,0.3-0.2,0.4-0.3c0.3,0.6,0.6,1.2,1.1,1.7c-0.7,1.1-1.1,2.2-1.3,3.5l-2.8,2.4
		C-648.9-725.7-649.5-725.6-650-725.6L-650-725.6z M-637.9-720.5c-2.2,0-3.9-2.7-4.1-5.3h8.2C-634.1-723.1-635.7-720.5-637.9-720.5z
		 M-623.7-727.4c0,0.5-0.2,1-0.6,1.3c-0.9,0.7-2.1,0.7-3,0l-2.8-2.4c-0.2-1.2-0.7-2.4-1.3-3.5c0.4-0.5,0.8-1.1,1.1-1.7
		c0.1,0.1,0.3,0.2,0.4,0.3l5.7,4.8C-623.9-728.3-623.7-727.9-623.7-727.4L-623.7-727.4z"/>
	<path id="Path_54-3_1_" d="M-607.7-696.8h-48.3c-0.9-0.1-1.7,0.5-1.8,1.3c-0.1,0.9,0.5,1.7,1.3,1.8c0.2,0,0.3,0,0.5,0h48.3
		c0.9,0.1,1.7-0.5,1.8-1.3c0.1-0.9-0.5-1.7-1.3-1.8C-607.4-696.9-607.5-696.9-607.7-696.8z"/>
	<path id="Path_55-3_1_" d="M-664.1-696.8h-4c-0.9-0.1-1.7,0.5-1.8,1.3c-0.1,0.9,0.5,1.7,1.3,1.8c0.2,0,0.3,0,0.5,0h4
		c0.9,0.1,1.7-0.5,1.8-1.3c0.1-0.9-0.5-1.7-1.3-1.8C-663.8-696.9-663.9-696.9-664.1-696.8z"/>
</g>
<g id="bee-9" transform="translate(1327.245 742.257) rotate(7)">
	<path id="Path_18-9" class="st13" d="M-1233.2-300.9c0.1,0,0.2,0.1,0.1,0.2c0,0.1-0.1,0.1-0.1,0.1l-2.9,0.8l0.1-2L-1233.2-300.9z"
		/>
	<path id="Path_33-9" class="st14" d="M-1247.3-308.7c0.4,1.4,1.9,2.3,3.4,1.9c1.4-0.3,2.2-1.7,1.9-3.1c0,0,0-0.1,0-0.1
		c-0.4-1.4-1.9-2.3-3.4-1.9c-1.4,0.3-2.2,1.7-1.9,3.1C-1247.3-308.8-1247.3-308.7-1247.3-308.7z"/>
	<path id="Path_34-9" class="st15" d="M-1236.5-307.6c0.6-1.5-0.2-3.2-1.7-3.8c-0.1,0-0.1,0-0.2-0.1c-1.7-0.5-3.4,0.4-4,2
		c-0.6,1.5,0.2,3.2,1.7,3.8c0.1,0,0.1,0,0.2,0.1C-1238.9-305.1-1237.1-306-1236.5-307.6z"/>
	<path id="Path_19-9" class="st16" d="M-1242.1-299.4l0.1-3.9l-1.8-3.4l0.4-1.3c1.3,0.2,2.5,0.7,3.6,1.3l1.9,1.3l1,3.2l-0.1,3
		l-1.4,2.8l-1.7,1.3c-1.2,0.5-2.4,0.9-3.7,1.1l-0.6-1.5L-1242.1-299.4z"/>
	<path id="Path_20-9" class="st17" d="M-1244.2-295.3c0.2,0,0.4,0,0.5-0.1c1.3-0.2,2.5-0.6,3.7-1.1c0.9-0.4,1.7-1,2.5-1.7l-0.8,1.6
		l-1.7,1.3l-0.2,0.1c-0.2,0.1-0.4,0.2-0.6,0.3c-0.6,0.2-1.2,0.4-1.9,0.5c-0.3,0.1-0.7,0.1-1,0.2L-1244.2-295.3z"/>
	<g id="Group_4-9" transform="translate(1.425 4.569)">
		<path id="Path_21-9" class="st18" d="M-1239.3-305.5c-0.1,2.1-0.8,4.1-2.1,5.7c2.6-1.2,4.4-3.3,4.4-5.7c0.1-2.4-1.6-4.5-4.1-5.9
			C-1239.8-309.6-1239.2-307.5-1239.3-305.5z"/>
		<path id="Path_22-9" class="st18" d="M-1256.6-302.5c1.3,1.8,3.2,3,5.4,3.6c1.1,0.3,2.3,0.5,3.5,0.5c0.9,0,1.8,0,2.6-0.2
			c1.9-1.8,3.1-4.2,3.2-6.9c0.1-2.6-0.9-5.2-2.8-7c-0.9-0.2-1.7-0.3-2.6-0.3c-2.5-0.1-5,0.5-7.2,1.8c-0.5,0.3-1,0.7-1.4,1.2
			L-1256.6-302.5z"/>
	</g>
	<path id="Path_23-9" class="st13" d="M-1249.7-295.7c1.1,0.3,2.3,0.5,3.5,0.5c0.9,0,1.8,0,2.6-0.2c0.5-0.1,0.9-0.2,1.3-0.3
		c-0.4,0.6-0.9,1.1-1.4,1.6c-0.1,0-0.2,0-0.3,0c-1.9,0.3-3.9,0.1-5.8-0.4c-2-0.5-3.7-1.6-5.1-3.1c-0.1-0.1-0.2-0.3-0.3-0.4l0.1-1.2
		C-1253.7-297.4-1251.8-296.2-1249.7-295.7z"/>
	<path id="Path_24-9" class="st16" d="M-1256.2-301.3c0,1.2,0.3,2.4,1,3.3c2.6,3.9,9.1,3.8,11.4-0.4c0.5-0.8,0.7-1.7,0.7-2.6
		c0-1.3-0.4-2.5-1.2-3.6c-1.6-2-4.5-2.4-6.5-0.9c0,0-0.1,0.1-0.1,0.1l-0.1,0.1l-0.1-0.1l0,0c-1-0.9-2.5-0.9-3.5,0.1
		C-1255.5-304.2-1256.1-302.8-1256.2-301.3z"/>
	<path id="Path_25-9" class="st17" d="M-1256.2-301.5c0-0.2,0-0.3,0-0.5c0.1,1,0.4,1.9,1,2.7c1.3,1.8,3.2,3,5.4,3.6
		c0.6,0.2,1.2,0.3,1.8,0.4c-2.7,0.7-5.6-0.4-7.2-2.6c-0.6-0.9-1-1.9-1-3C-1256.2-301.1-1256.2-301.3-1256.2-301.5z"/>
	<path id="Path_26-9" class="st13" d="M-1235.5-301.5c0,0.1,0,0.1,0,0.2c0,0,0,0,0,0.1c0,0.6-0.1,1.3-0.3,1.9
		c-0.5,1.2-1.3,2.3-2.4,3.1c-0.6,0.4-1.2,0.8-1.8,1.1c0.5-0.6,0.9-1.2,1.2-1.9C-1237.1-298-1235.9-299.6-1235.5-301.5z"/>
	<path id="Path_261" class="st16" d="M-1250.4-311.5c0.4,0,0.8,0.3,0.8,0.8c0,0,0,0,0,0c0,0.4-0.4,0.8-0.8,0.7
		c-0.4,0-0.8-0.3-0.8-0.8c0,0,0,0,0,0C-1251.2-311.2-1250.9-311.5-1250.4-311.5z"/>
	<path id="Path_27-9" class="st17" d="M-1251.2-310.9c0.1,0.3,0.4,0.5,0.7,0.6c0.4,0.1,0.8-0.2,0.9-0.5c0,0.1,0,0.2,0,0.3
		c-0.1,0.4-0.5,0.7-0.9,0.6c-0.4,0-0.7-0.4-0.7-0.8c0,0,0,0,0,0C-1251.2-310.9-1251.2-310.9-1251.2-310.9z"/>
	<path id="Path_262" class="st16" d="M-1253.3-311c0.4,0,0.8,0.3,0.8,0.8c0,0,0,0,0,0c0,0.4-0.4,0.8-0.8,0.7c-0.4,0-0.8-0.3-0.8-0.8
		c0,0,0,0,0,0C-1254.1-310.7-1253.7-311-1253.3-311z"/>
	<path id="Path_28-9" class="st17" d="M-1254.1-310.5c0.1,0.3,0.4,0.5,0.7,0.6c0.4,0.1,0.8-0.2,0.9-0.5c0,0.1,0,0.2,0,0.3
		c-0.1,0.4-0.5,0.7-0.9,0.6c-0.4,0-0.7-0.4-0.7-0.8c0,0,0,0,0,0C-1254.1-310.4-1254.1-310.4-1254.1-310.5z"/>
	<path id="Path_29-9" d="M-1247.7-301.6c0.2,0,0.3,0.1,0.3,0.3c0,0,0,0,0,0l0,0.5c0,0.2-0.2,0.3-0.4,0.3c-0.2,0-0.3-0.1-0.3-0.3
		c0,0,0,0,0,0l0-0.6C-1248-301.4-1247.9-301.6-1247.7-301.6C-1247.7-301.6-1247.7-301.6-1247.7-301.6z"/>
	<path id="Path_30-9" d="M-1254.3-301.7c0.2,0,0.3,0.1,0.3,0.3c0,0,0,0,0,0l0,0.5c0,0.2-0.2,0.3-0.4,0.3c-0.2,0-0.3-0.1-0.3-0.3
		c0,0,0,0,0,0l0-0.6C-1254.6-301.6-1254.5-301.7-1254.3-301.7C-1254.3-301.7-1254.3-301.7-1254.3-301.7z"/>
	<path id="Path_31-9" d="M-1252-301.1c0.2-0.1,0.4-0.1,0.5,0c0.1,0.1,0.3,0.2,0.5,0.2c0.2,0,0.4-0.1,0.6-0.2c0.1-0.1,0.3-0.1,0.5,0
		c0.1,0.1,0.2,0.3,0,0.4c0,0,0,0,0,0c-0.3,0.3-0.7,0.4-1.1,0.4c-0.4,0-0.8-0.2-1.1-0.5C-1252.2-300.7-1252.2-300.9-1252-301.1
		C-1252.1-301.1-1252-301.1-1252-301.1z"/>
	<path id="Path_32-9" d="M-1254.7-305.4c0.4-0.5,0.9-0.9,1.5-1.3c0.2-0.2,0.5-0.3,0.7-0.4c-0.1-0.7-0.2-1.4-0.6-2.1
		c-0.1,0-0.2,0-0.3,0c-0.6,0-1.1-0.5-1.1-1.1c0,0,0-0.1,0-0.1c0.1-0.6,0.6-1,1.2-0.9c0.6,0,1.1,0.5,1.1,1.1c0,0,0,0.1,0,0.1
		c0,0.2-0.1,0.4-0.3,0.6c0.3,0.7,0.5,1.4,0.6,2.1c0.7-0.3,1.4-0.6,2.1-0.7c-0.1-0.5-0.2-1-0.5-1.5c-0.1,0-0.2,0-0.3,0
		c-0.4,0-0.7-0.2-0.9-0.4c-0.2-0.2-0.3-0.5-0.2-0.8c0.1-0.6,0.6-0.9,1.2-0.9c0.6,0,1.1,0.5,1.1,1.1c0,0,0,0.1,0,0.1
		c0,0.2-0.1,0.4-0.3,0.6c0.3,0.5,0.5,1.1,0.6,1.7c0.5-0.1,0.9-0.2,1.4-0.2c0,0,0-0.1,0-0.1c-0.5-1.5,0.4-3.2,1.9-3.6
		c0.1,0,0.1,0,0.2,0c1.4-0.3,2.9,0.3,3.6,1.5c0.7-0.8,1.7-1.2,2.7-1.2c0.3,0,0.6,0.1,0.9,0.2c1.7,0.5,2.7,2.3,2.2,4
		c0,0.1,0,0.1-0.1,0.2c-0.3,0.7-0.8,1.4-1.4,1.8c0.5,0.4,0.9,0.9,1.3,1.4c0.5,0.7,0.9,1.5,1,2.4l2.2,0.7c0.3,0,0.4,0.3,0.4,0.6
		c0,0.2-0.2,0.4-0.4,0.4l-2.2,0.6c-0.2,0.8-0.6,1.6-1.2,2.3c-0.9,1.1-2,1.9-3.3,2.5c-1.2,0.6-2.5,0.9-3.8,1.1
		c-0.9,0.1-1.8,0.2-2.7,0.2c-1.2,0-2.4-0.2-3.6-0.5c-2.2-0.5-4.2-1.8-5.6-3.7l0,0C-1257.1-300.2-1256.8-303.4-1254.7-305.4z
		 M-1252.9-310.5c-0.1-0.1-0.2-0.2-0.3-0.2c0,0,0,0-0.1,0c-0.2,0-0.4,0.1-0.5,0.4c0,0.2,0.1,0.5,0.4,0.5c0,0,0,0,0,0c0,0,0,0,0.1,0
		c0.2,0,0.4-0.1,0.5-0.4C-1252.8-310.3-1252.9-310.4-1252.9-310.5z M-1250.4-311.1c-0.2,0-0.5,0.1-0.5,0.4c0,0.2,0.2,0.5,0.4,0.5
		c0,0,0,0,0.1,0c0.2,0,0.4-0.1,0.5-0.4C-1250-310.9-1250.1-311.1-1250.4-311.1C-1250.4-311.1-1250.4-311.1-1250.4-311.1z
		 M-1254.9-298.1c1.2,1.7,3.1,2.6,5.1,2.7c2.3,0.1,4.5-1.1,5.7-3.1c1-1.8,0.9-4.1-0.4-5.8c-1.5-1.9-4.2-2.2-6-0.7c0,0,0,0-0.1,0
		c-0.1,0.1-0.2,0.2-0.3,0.2c-0.1,0-0.3-0.1-0.3-0.2c-0.9-0.8-2.2-0.7-3,0.1c-1,1-1.5,2.3-1.6,3.7
		C-1255.9-300.2-1255.5-299.1-1254.9-298.1z M-1242.5-310.1c-0.4-0.9-1.3-1.6-2.3-1.6c-0.2,0-0.4,0-0.6,0.1
		c-0.6,0.1-1.1,0.5-1.4,1.1c-0.3,0.6-0.4,1.2-0.2,1.8c0,0.1,0.1,0.2,0.1,0.2c0,0,0.4,0,0.6,0c0.5,0,1,0,1.5,0.1
		c0.2,0,0.7,0.1,0.7,0.1c-0.2-0.7-0.6-1.4-1.1-2c-0.1-0.1-0.1-0.3,0-0.4c0,0,0,0,0,0c0.1-0.1,0.4-0.1,0.5,0c0.7,0.7,1.2,1.6,1.4,2.5
		c0.1,0,0.3,0.1,0.4,0.1c0-0.3,0-0.6,0.1-0.8C-1242.8-309.4-1242.7-309.8-1242.5-310.1L-1242.5-310.1z M-1238.2-306.1
		c0.6-0.3,1.1-0.9,1.3-1.6c0.5-1.3-0.2-2.9-1.5-3.4c-0.1,0-0.1,0-0.2-0.1c-1.2-0.3-2.6,0.2-3.3,1.3c-0.3,0.5-0.5,1.2-0.4,1.8l0,0
		c0.5,0.1,0.9,0.3,1.4,0.4c0.3-1,0.9-1.8,1.7-2.5c0.1-0.1,0.4-0.1,0.5,0c0.1,0.1,0.1,0.3,0,0.4c0,0,0,0,0,0
		c-0.7,0.6-1.2,1.4-1.5,2.3c0.4,0.2,0.8,0.4,1.2,0.6C-1238.9-306.6-1238.2-306.1-1238.2-306.1L-1238.2-306.1z M-1235.2-300.4
		l1.4-0.4l-1.4-0.4c0,0,0,0.1,0,0.1C-1235.2-300.9-1235.2-300.6-1235.2-300.4L-1235.2-300.4z M-1237.1-297.8
		c0.5-0.6,0.9-1.4,1.1-2.2c0,0,0,0,0,0c0.1-0.5,0.1-1.1,0-1.6c0,0,0,0,0,0c-0.3-1.6-1.2-3-2.5-3.9l-0.2-0.1c0,0,0.1,0.2,0.1,0.2
		c1.4,2.9,1.3,6.4-0.4,9.2l0,0C-1238.2-296.6-1237.6-297.1-1237.1-297.8L-1237.1-297.8z M-1240.2-295.4l0.1-0.1
		c0.3-0.4,0.6-0.8,0.8-1.3c1.6-2.9,1.4-6.4-0.3-9.2c-0.1-0.1-0.3-0.4-0.3-0.4l0,0c-0.8-0.4-1.5-0.7-2.4-0.9l-0.1,0
		c0.2,0.2,0.3,0.4,0.5,0.7c1.2,1.7,1.8,3.7,1.7,5.8c-0.1,2.2-0.9,4.3-2.2,6c0,0-0.3,0.3-0.3,0.4
		C-1241.8-294.8-1241-295.1-1240.2-295.4L-1240.2-295.4z M-1249.7-294.7c1.1,0.3,2.3,0.5,3.4,0.5c0.8,0,1.6,0,2.4-0.1
		c0.8-0.7,1.5-1.6,2-2.6c1.5-2.9,1.4-6.3-0.3-9.1c-0.4-0.6-0.8-1.1-1.3-1.7l-0.1,0c-1.1-0.2-2.3-0.3-3.5-0.2c-2,0.1-3.9,0.6-5.5,1.6
		c0.6,0,1.2,0.2,1.7,0.6c2.2-1.7,5.3-1.3,7,0.9c0.8,1.1,1.2,2.4,1.2,3.7c0,1-0.3,1.9-0.8,2.7c-1.3,2.2-3.8,3.5-6.3,3.4
		c-0.1,0-0.3,0-0.3,0C-1250-294.8-1249.8-294.8-1249.7-294.7z"/>
</g>
<g id="bee-8" transform="translate(1386.107 648.231) rotate(179)">
	<path id="Path_18-8" class="st13" d="M1358.3,341.2c0.1,0,0.1-0.1,0.1-0.2c0-0.1-0.1-0.1-0.2-0.1l-3,0.1l0.6,1.9L1358.3,341.2z"/>
	<path id="Path_33-8" class="st14" d="M1346.9,352.6c0-1.5,1.2-2.7,2.7-2.8c1.4-0.1,2.6,1,2.7,2.5c0,0.1,0,0.1,0,0.2
		c0,1.5-1.2,2.7-2.7,2.8c-1.4,0.1-2.6-1-2.7-2.5C1346.9,352.7,1346.9,352.6,1346.9,352.6z"/>
	<path id="Path_34-8" class="st15" d="M1356.9,348.5c1,1.3,0.7,3.1-0.6,4.1c-0.1,0-0.1,0.1-0.2,0.1c-1.5,0.9-3.4,0.6-4.4-0.8
		c-1-1.3-0.7-3.1,0.6-4.1c0.1,0,0.1-0.1,0.2-0.1C1354,346.8,1355.9,347.1,1356.9,348.5z"/>
	<path id="Path_19-8" class="st16" d="M1349.3,342.2l1.2,3.7l-0.7,3.7l0.8,1.2c1.1-0.6,2.2-1.3,3.1-2.2l1.4-1.8l0.1-3.3l-0.9-2.8
		l-2.1-2.3l-2-0.8c-1.3-0.2-2.6-0.2-3.8,0l-0.2,1.6L1349.3,342.2z"/>
	<path id="Path_20-8" class="st17" d="M1346.2,338.8c0.2,0,0.4-0.1,0.5-0.1c1.3-0.2,2.6-0.2,3.8,0c1,0.1,1.9,0.4,2.8,0.9l-1.2-1.3
		l-2-0.8l-0.2,0c-0.2,0-0.5-0.1-0.7-0.1c-0.6,0-1.3-0.1-1.9,0c-0.3,0-0.7,0.1-1,0.1L1346.2,338.8z"/>
	<g id="Group_4-8" transform="translate(1.426 0.323)">
		<path id="Path_21-8" class="st18" d="M1352.4,342.1c-0.6-2-1.9-3.7-3.6-4.9c2.9,0.5,5.1,1.9,5.8,4.2c0.7,2.2-0.2,4.8-2.3,6.8
			C1353,346.2,1353,344.1,1352.4,342.1z"/>
		<path id="Path_22-8" class="st18" d="M1335,344.2c0.8-2.1,2.3-3.8,4.2-4.9c1-0.6,2.1-1.1,3.2-1.5c0.8-0.3,1.7-0.5,2.6-0.6
			c2.4,1.1,4.1,3.2,5,5.7c0.8,2.5,0.5,5.2-0.7,7.5c-0.8,0.4-1.6,0.7-2.4,1c-2.4,0.8-4.9,0.9-7.4,0.3c-0.6-0.2-1.2-0.4-1.7-0.7
			L1335,344.2z"/>
	</g>
	<path id="Path_23-8" class="st13" d="M1341,340.8c1-0.6,2.1-1.1,3.2-1.5c0.8-0.3,1.7-0.5,2.6-0.6c0.5-0.1,0.9-0.1,1.4-0.1
		c-0.5-0.4-1.1-0.8-1.8-1.1c-0.1,0-0.2,0-0.3,0c-1.9,0.3-3.8,1-5.5,2c-1.8,1-3.2,2.6-4,4.4c-0.1,0.2-0.1,0.3-0.2,0.5l0.4,1.1
		C1337.6,343.6,1339.1,341.9,1341,340.8z"/>
	<path id="Path_24-8" class="st16" d="M1336.4,348c-0.4-1.1-0.3-2.4,0-3.5c1.4-4.4,7.6-6.2,11.1-2.8c0.7,0.6,1.1,1.4,1.4,2.3
		c0.4,1.2,0.3,2.5-0.1,3.7c-0.9,2.4-3.6,3.6-6,2.6c-0.1,0-0.1,0-0.2-0.1l-0.1-0.1l-0.1,0.1l0,0c-0.7,1.1-2.2,1.5-3.4,0.9
		C1337.8,350.6,1336.8,349.4,1336.4,348z"/>
	<path id="Path_25-8" class="st17" d="M1336.4,348.2c0.1,0.1,0.1,0.3,0.2,0.4c-0.2-0.9-0.1-1.9,0.2-2.8c0.8-2.1,2.3-3.8,4.2-4.9
		c0.5-0.3,1.1-0.6,1.6-0.9c-2.8,0.1-5.3,1.9-6.2,4.6c-0.3,1-0.4,2.1-0.1,3.2C1336.3,347.9,1336.3,348,1336.4,348.2z"/>
	<path id="Path_26-8" class="st13" d="M1356.2,342.3c0-0.1,0-0.1,0-0.2c0,0,0,0,0-0.1c-0.1-0.6-0.4-1.2-0.8-1.7
		c-0.8-1.1-1.9-1.9-3.1-2.3c-0.7-0.2-1.3-0.4-2-0.5c0.6,0.4,1.2,0.9,1.7,1.5C1353.7,339.5,1355.3,340.7,1356.2,342.3z"/>
	<path id="Path_265" class="st16" d="M1344.2,354.7c0.4-0.1,0.9,0.1,1,0.5c0.1,0.4-0.1,0.9-0.6,1c-0.4,0.1-0.9-0.1-1-0.5
		C1343.6,355.3,1343.8,354.8,1344.2,354.7z"/>
	<path id="Path_27-8" class="st17" d="M1343.8,355.9c0-0.3,0.2-0.6,0.5-0.7c0.4-0.2,0.8-0.1,1,0.2c0-0.1,0-0.2-0.1-0.3
		c-0.2-0.4-0.7-0.5-1.1-0.4c-0.4,0.2-0.6,0.6-0.4,1c0,0,0,0,0,0C1343.7,355.8,1343.8,355.8,1343.8,355.9z"/>
	<path id="Path_266" class="st16" d="M1341.3,355.1c0.4-0.1,0.9,0.1,1,0.5c0.1,0.4-0.1,0.9-0.6,1c-0.4,0.1-0.9-0.1-1-0.5
		C1340.7,355.6,1340.9,355.2,1341.3,355.1z"/>
	<path id="Path_28-8" class="st17" d="M1340.9,356.2c0-0.3,0.2-0.6,0.5-0.7c0.4-0.2,0.8-0.1,1,0.2c0-0.1,0-0.2-0.1-0.3
		c-0.2-0.4-0.7-0.5-1.1-0.4c-0.4,0.2-0.6,0.6-0.4,1c0,0,0,0,0,0C1340.8,356.2,1340.9,356.2,1340.9,356.2z"/>
	<path id="Path_29-8" d="M1344.5,345.9c0.2,0,0.3-0.2,0.2-0.4c0,0,0,0,0,0l-0.2-0.5c-0.1-0.2-0.3-0.3-0.4-0.2
		c-0.2,0-0.3,0.2-0.2,0.4l0.2,0.5C1344.2,345.8,1344.4,345.9,1344.5,345.9C1344.5,345.9,1344.5,345.9,1344.5,345.9z"/>
	<path id="Path_30-8" d="M1338.3,347.9c0.2,0,0.3-0.2,0.2-0.4c0,0,0,0,0,0l-0.2-0.5c-0.1-0.2-0.3-0.3-0.4-0.2
		c-0.2,0-0.3,0.2-0.2,0.4l0.2,0.5C1337.9,347.8,1338.1,347.9,1338.3,347.9C1338.3,347.9,1338.3,347.9,1338.3,347.9z"/>
	<path id="Path_31-8" d="M1340.2,346.6c0.2,0.1,0.4,0,0.5-0.2c0.1-0.2,0.3-0.3,0.5-0.4c0.2-0.1,0.4-0.1,0.6,0c0.2,0.1,0.4,0,0.5-0.1
		c0.1-0.1,0.1-0.3-0.1-0.4c0,0,0,0,0,0c-0.4-0.2-0.8-0.2-1.2-0.1c-0.4,0.1-0.7,0.4-0.9,0.7C1340,346.3,1340.1,346.5,1340.2,346.6
		C1340.2,346.6,1340.2,346.6,1340.2,346.6z"/>
	<path id="Path_32-8" d="M1338.9,351.5c0.6,0.3,1.2,0.6,1.8,0.8c0.3,0.1,0.6,0.2,0.8,0.2c0.1,0.7,0.2,1.4,0,2.2
		c-0.1,0-0.2,0-0.3,0.1c-0.6,0.2-1,0.8-0.8,1.4c0,0,0,0.1,0,0.1c0.3,0.5,0.9,0.7,1.4,0.6c0.6-0.2,0.9-0.8,0.8-1.4c0,0,0-0.1,0-0.1
		c-0.1-0.2-0.2-0.4-0.4-0.5c0.1-0.7,0.1-1.5,0-2.2c0.7,0.1,1.5,0.1,2.2,0.1c0.1,0.5,0,1.1,0,1.6c-0.1,0-0.2,0-0.3,0.1
		c-0.3,0.1-0.6,0.4-0.8,0.7c-0.1,0.3-0.1,0.6,0,0.8c0.3,0.5,0.9,0.7,1.4,0.6c0.6-0.2,0.9-0.8,0.8-1.4c0,0,0-0.1,0-0.1
		c-0.1-0.2-0.2-0.4-0.4-0.5c0.1-0.6,0.1-1.2,0.1-1.8c0.5,0,0.9-0.1,1.4-0.2c0,0,0,0.1,0,0.1c0,1.6,1.2,2.9,2.8,2.9
		c0.1,0,0.1,0,0.2,0c1.4-0.1,2.7-1.1,3-2.5c0.9,0.5,2,0.6,2.9,0.3c0.3-0.1,0.6-0.2,0.9-0.4c1.5-1,1.9-3,1-4.5c0-0.1-0.1-0.1-0.1-0.2
		c-0.5-0.6-1.1-1.1-1.9-1.3c0.4-0.5,0.6-1.1,0.9-1.7c0.3-0.8,0.4-1.7,0.3-2.6l1.9-1.3c0.2-0.1,0.3-0.4,0.2-0.6
		c-0.1-0.2-0.3-0.3-0.5-0.3l-2.3,0.1c-0.4-0.8-1-1.4-1.8-1.9c-1.2-0.8-2.5-1.3-3.9-1.5c-1.3-0.2-2.6-0.2-4,0
		c-0.9,0.1-1.8,0.3-2.6,0.6c-1.2,0.4-2.3,0.9-3.3,1.5c-2,1.1-3.5,3-4.3,5.1l0,0C1335.2,347.2,1336.3,350.2,1338.9,351.5z
		 M1342,355.9c0,0.1-0.1,0.2-0.2,0.3c0,0,0,0-0.1,0c-0.2,0.1-0.5,0-0.6-0.2c-0.1-0.2,0-0.5,0.2-0.6c0,0,0,0,0,0c0,0,0,0,0.1,0
		c0.2-0.1,0.5,0,0.6,0.2C1342,355.7,1342,355.8,1342,355.9z M1344.6,355.8c-0.2,0.1-0.5,0-0.6-0.2c-0.1-0.2,0-0.5,0.3-0.6
		c0,0,0,0,0,0c0.2-0.1,0.5,0,0.6,0.2C1345,355.5,1344.9,355.7,1344.6,355.8L1344.6,355.8z M1336.7,344.6c0.7-1.9,2.2-3.4,4.2-4
		c2.2-0.7,4.6-0.2,6.3,1.3c1.5,1.5,2,3.7,1.2,5.7c-0.9,2.2-3.4,3.3-5.6,2.4c0,0,0,0-0.1,0c-0.1-0.1-0.2-0.1-0.4-0.1
		c-0.1,0.1-0.2,0.2-0.3,0.3c-0.6,1-1.9,1.3-2.9,0.8c-1.2-0.7-2.1-1.8-2.6-3.1C1336.3,346.8,1336.3,345.7,1336.7,344.6z
		 M1351.9,352.6c-0.1,1-0.8,1.9-1.7,2.2c-0.2,0.1-0.4,0.1-0.6,0.1c-0.6,0-1.2-0.2-1.6-0.6c-0.4-0.4-0.7-1.1-0.7-1.7
		c0-0.1,0-0.2,0-0.2c0,0,0.4-0.1,0.5-0.1c0.5-0.1,0.9-0.3,1.4-0.5c0.2-0.1,0.6-0.3,0.6-0.3c0,0.8-0.2,1.5-0.6,2.2
		c-0.1,0.1,0,0.3,0.1,0.4c0,0,0,0,0,0c0.2,0.1,0.4,0,0.5-0.1c0.5-0.9,0.7-1.8,0.6-2.8c0.1-0.1,0.3-0.1,0.4-0.2
		c0.1,0.3,0.2,0.5,0.3,0.8C1351.4,352,1351.7,352.3,1351.9,352.6z M1355,347.6c0.7,0.2,1.3,0.6,1.7,1.1c0.9,1.2,0.6,2.8-0.5,3.7
		c0,0-0.1,0.1-0.1,0.1c-1.1,0.7-2.5,0.6-3.5-0.3c-0.5-0.4-0.8-1-0.9-1.6l0,0c0.4-0.2,0.8-0.5,1.2-0.8c0.6,0.8,1.4,1.5,2.3,2
		c0.2,0.1,0.4,0,0.5-0.2c0.1-0.1,0-0.3-0.1-0.4c0,0,0,0,0,0c-0.8-0.4-1.5-1-2.1-1.8c0.3-0.3,0.7-0.6,1-0.9
		C1354.4,348.2,1354.9,347.6,1355,347.6L1355,347.6z M1356.2,341.2l1.5,0l-1.2,0.8c0,0,0-0.1,0-0.1
		C1356.4,341.7,1356.3,341.4,1356.2,341.2z M1353.7,339.2c0.7,0.5,1.3,1.1,1.7,1.8c0,0,0,0,0,0c0.3,0.5,0.4,1,0.5,1.6c0,0,0,0,0,0
		c0.1,1.6-0.3,3.2-1.3,4.4l-0.1,0.2c0,0,0-0.2,0-0.3c0.6-3.2-0.5-6.5-2.9-8.8l0,0C1352.3,338.4,1353,338.8,1353.7,339.2z
		 M1350,337.9l0.1,0.1c0.4,0.3,0.8,0.6,1.1,1c2.3,2.4,3.2,5.8,2.2,9c0,0.1-0.1,0.4-0.1,0.5l0,0c-0.6,0.6-1.3,1.1-2,1.6l0,0
		c0.1-0.3,0.2-0.5,0.3-0.8c1.4-4.2-0.2-8.7-3.8-11.2c0,0-0.3-0.2-0.4-0.3C1348.3,337.7,1349.2,337.7,1350,337.9z M1340.7,339.9
		c1-0.6,2-1.1,3.1-1.4c0.8-0.2,1.6-0.4,2.4-0.6c1,0.5,1.8,1.1,2.6,1.9c1,1.1,1.8,2.4,2.2,3.8c0.5,1.6,0.5,3.4,0,5
		c-0.2,0.7-0.4,1.3-0.8,1.9l-0.1,0c-1,0.5-2.1,0.9-3.3,1.2c-1.9,0.5-3.9,0.5-5.8,0c0.6-0.2,1.1-0.6,1.5-1.1c2.6,1,5.5-0.3,6.5-2.9
		c0.5-1.3,0.5-2.6,0.1-3.9c-0.3-0.9-0.8-1.7-1.5-2.4c-1.9-1.8-4.6-2.3-7-1.5c-0.1,0-0.3,0.1-0.3,0.1
		C1340.5,340,1340.6,339.9,1340.7,339.9L1340.7,339.9z"/>
</g>
<g id="bee-8_1_" transform="translate(1386.107 648.231) rotate(179)">
	<path id="Path_18-8_1_" class="st13" d="M891.4,646.2c0.1,0,0.2-0.1,0.1-0.2c0-0.1-0.1-0.1-0.1-0.1l-2.8-0.9l0,2L891.4,646.2z"/>
	<path id="Path_33-8_1_" class="st14" d="M876.9,653.3c0.5-1.4,2-2.2,3.5-1.8c1.4,0.4,2.1,1.8,1.7,3.2c0,0.1,0,0.1-0.1,0.2
		c-0.5,1.4-2,2.2-3.5,1.8c-1.4-0.4-2.1-1.8-1.7-3.2C876.9,653.4,876.9,653.4,876.9,653.3z"/>
	<path id="Path_34-8_1_" class="st15" d="M887.7,652.7c0.5,1.5-0.3,3.2-1.9,3.7c-0.1,0-0.1,0-0.2,0.1c-1.7,0.4-3.4-0.6-3.9-2.2
		c-0.5-1.5,0.3-3.2,1.9-3.7c0.1,0,0.1,0,0.2-0.1C885.5,650.1,887.2,651.1,887.7,652.7z"/>
	<path id="Path_19-8_1_" class="st16" d="M882.6,644.2l-0.1,3.9l-1.9,3.3l0.4,1.4c1.3-0.2,2.5-0.6,3.7-1.1l1.9-1.2l1.2-3.1l0.1-3
		l-1.3-2.9l-1.6-1.4c-1.1-0.6-2.4-1-3.6-1.3l-0.7,1.5L882.6,644.2z"/>
	<path id="Path_20-8_1_" class="st17" d="M880.7,640.1c0.2,0,0.4,0.1,0.5,0.1c1.3,0.2,2.5,0.7,3.6,1.3c0.9,0.5,1.7,1.1,2.4,1.8
		l-0.7-1.7l-1.6-1.4l-0.2-0.1c-0.2-0.1-0.4-0.2-0.6-0.3c-0.6-0.3-1.2-0.5-1.8-0.6c-0.3-0.1-0.6-0.2-1-0.2L880.7,640.1z"/>
	<g id="Group_4-8_1_" transform="translate(1.426 0.323)">
		<path id="Path_21-8_1_" class="st18" d="M885.3,645.6c0-2.1-0.6-4.1-1.8-5.8c2.6,1.4,4.2,3.5,4.2,5.9c-0.1,2.4-1.8,4.4-4.4,5.7
			C884.5,649.7,885.3,647.7,885.3,645.6z"/>
		<path id="Path_22-8_1_" class="st18" d="M868.2,641.9c1.4-1.7,3.4-2.9,5.6-3.3c1.2-0.3,2.3-0.4,3.5-0.3c0.9,0,1.8,0.1,2.6,0.3
			c1.9,1.9,2.9,4.4,2.8,7c-0.1,2.6-1.2,5.1-3.1,6.9c-0.9,0.1-1.7,0.2-2.6,0.2c-2.5,0-5-0.7-7.1-2.2c-0.5-0.4-1-0.8-1.4-1.2
			L868.2,641.9z"/>
	</g>
	<path id="Path_23-8_1_" class="st13" d="M875.1,640.2c1.2-0.3,2.3-0.4,3.5-0.3c0.9,0,1.8,0.1,2.6,0.3c0.5,0.1,0.9,0.2,1.3,0.3
		c-0.4-0.6-0.8-1.1-1.3-1.6c-0.1,0-0.2,0-0.3-0.1c-1.9-0.3-3.9-0.3-5.8,0.1c-2,0.4-3.8,1.4-5.2,2.9c-0.1,0.1-0.2,0.3-0.3,0.4
		l0.1,1.2C871.1,641.8,873,640.6,875.1,640.2z"/>
	<path id="Path_24-8_1_" class="st16" d="M868.4,645.5c0-1.2,0.4-2.3,1.2-3.3c2.8-3.7,9.2-3.4,11.4,0.9c0.4,0.8,0.6,1.7,0.6,2.6
		c0,1.3-0.5,2.5-1.3,3.5c-1.7,2-4.6,2.2-6.5,0.6c0,0-0.1-0.1-0.1-0.1l-0.1-0.1l-0.1,0.1l0,0c-1,0.9-2.6,0.7-3.5-0.3
		C869,648.4,868.4,647,868.4,645.5z"/>
	<path id="Path_25-8_1_" class="st17" d="M868.4,645.7c0,0.2,0,0.3,0,0.5c0.1-1,0.5-1.8,1.1-2.6c1.4-1.7,3.4-2.9,5.6-3.3
		c0.6-0.1,1.2-0.2,1.8-0.3c-2.7-0.8-5.6,0.1-7.4,2.3c-0.7,0.9-1.1,1.9-1.2,3C868.4,645.4,868.4,645.5,868.4,645.7z"/>
	<path id="Path_26-8_1_" class="st13" d="M889,646.6c0-0.1,0-0.1,0-0.2c0,0,0,0,0-0.1c0.1-0.6,0-1.3-0.2-1.9
		c-0.4-1.3-1.2-2.4-2.2-3.2c-0.5-0.4-1.1-0.8-1.7-1.2c0.4,0.6,0.8,1.3,1.1,2C887.6,643.1,888.7,644.8,889,646.6z"/>
	<path id="Path_265_1_" class="st16" d="M873.7,654.4c0.4,0,0.8,0.3,0.8,0.8c0,0.4-0.4,0.8-0.8,0.7c-0.4,0-0.8-0.3-0.8-0.8
		C872.9,654.7,873.3,654.4,873.7,654.4z"/>
	<path id="Path_27-8_1_" class="st17" d="M872.9,655.4c0.1-0.3,0.4-0.5,0.7-0.5c0.4,0,0.8,0.2,0.9,0.6c0-0.1,0-0.2,0-0.3
		c-0.1-0.4-0.5-0.7-0.9-0.7c-0.4,0-0.8,0.4-0.7,0.8c0,0,0,0,0,0C872.9,655.3,872.9,655.4,872.9,655.4z"/>
	<path id="Path_266_1_" class="st16" d="M870.9,653.8c0.4,0,0.8,0.3,0.8,0.8c0,0.4-0.4,0.8-0.8,0.7c-0.4,0-0.8-0.3-0.8-0.8
		C870,654.1,870.4,653.8,870.9,653.8z"/>
	<path id="Path_28-8_1_" class="st17" d="M870,654.8c0.1-0.3,0.4-0.5,0.7-0.5c0.4,0,0.8,0.2,0.9,0.6c0-0.1,0-0.2,0-0.3
		c-0.1-0.4-0.5-0.7-0.9-0.7c-0.4,0-0.8,0.4-0.7,0.8c0,0,0,0,0,0C870,654.7,870,654.7,870,654.8z"/>
	<path id="Path_29-8_1_" d="M876.9,646.2c0.2,0,0.3-0.1,0.4-0.3c0,0,0,0,0,0l0-0.6c0-0.2-0.2-0.3-0.3-0.3c-0.2,0-0.3,0.1-0.4,0.3
		l0,0.5C876.5,646,876.7,646.2,876.9,646.2C876.9,646.2,876.9,646.2,876.9,646.2z"/>
	<path id="Path_30-8_1_" d="M870.3,646c0.2,0,0.3-0.1,0.4-0.3c0,0,0,0,0,0l0-0.6c0-0.2-0.2-0.3-0.3-0.3c-0.2,0-0.3,0.1-0.4,0.3
		l0,0.5C869.9,645.9,870.1,646,870.3,646C870.3,646,870.3,646,870.3,646z"/>
	<path id="Path_31-8_1_" d="M872.6,645.5c0.1,0.1,0.4,0.1,0.5,0c0.1-0.1,0.3-0.2,0.6-0.2c0.2,0,0.4,0.1,0.5,0.2
		c0.1,0.1,0.3,0.2,0.5,0c0.1-0.1,0.2-0.3,0.1-0.4c0,0,0,0,0,0c-0.3-0.3-0.7-0.5-1.1-0.5c-0.4,0-0.8,0.1-1.1,0.4
		C872.4,645.2,872.4,645.4,872.6,645.5C872.5,645.5,872.5,645.5,872.6,645.5z"/>
	<path id="Path_32-8_1_" d="M869.6,649.7c0.4,0.5,0.9,0.9,1.4,1.3c0.2,0.2,0.5,0.3,0.7,0.5c-0.1,0.7-0.3,1.4-0.7,2.1
		c-0.1,0-0.2,0-0.3,0c-0.6,0-1.2,0.4-1.2,1.1c0,0,0,0.1,0,0.1c0.1,0.6,0.6,1,1.1,1c0.6,0,1.2-0.4,1.2-1.1c0,0,0-0.1,0-0.1
		c0-0.2-0.1-0.4-0.3-0.6c0.4-0.6,0.6-1.3,0.7-2.1c0.7,0.3,1.4,0.6,2.1,0.8c-0.1,0.5-0.3,1-0.5,1.5c-0.1,0-0.2,0-0.3,0
		c-0.4,0-0.7,0.1-0.9,0.4c-0.2,0.2-0.3,0.5-0.3,0.8c0.1,0.6,0.6,1,1.1,1c0.6,0,1.2-0.4,1.2-1.1c0,0,0-0.1,0-0.1
		c0-0.2-0.1-0.4-0.3-0.6c0.3-0.5,0.5-1.1,0.6-1.7c0.5,0.1,0.9,0.2,1.4,0.3c0,0,0,0.1,0,0.1c-0.5,1.5,0.2,3.2,1.7,3.7
		c0.1,0,0.1,0,0.2,0.1c1.4,0.4,2.9-0.2,3.6-1.4c0.7,0.8,1.6,1.2,2.7,1.3c0.3,0,0.6,0,0.9-0.1c1.7-0.4,2.8-2.2,2.4-3.9
		c0-0.1,0-0.1-0.1-0.2c-0.2-0.7-0.7-1.4-1.3-1.8c0.5-0.4,1-0.8,1.4-1.3c0.6-0.7,0.9-1.5,1.2-2.3l2.2-0.6c0.3,0,0.4-0.3,0.4-0.5
		c0-0.2-0.2-0.4-0.4-0.4l-2.2-0.7c-0.2-0.9-0.5-1.7-1.1-2.4c-0.8-1.1-1.9-2-3.2-2.7c-1.2-0.6-2.4-1-3.7-1.3
		c-0.9-0.2-1.8-0.3-2.7-0.3c-1.2,0-2.4,0.1-3.6,0.3c-2.3,0.4-4.3,1.6-5.8,3.4l0,0C867.6,644.4,867.7,647.6,869.6,649.7z
		 M871.2,654.9c-0.1,0.1-0.2,0.1-0.3,0.2c0,0,0,0-0.1,0c-0.2,0-0.4-0.2-0.5-0.4c0-0.2,0.2-0.5,0.4-0.5c0,0,0,0,0,0c0,0,0,0,0.1,0
		c0.2,0,0.4,0.2,0.5,0.4C871.3,654.7,871.3,654.8,871.2,654.9z M873.7,655.6c-0.2,0-0.5-0.1-0.5-0.4c0-0.3,0.2-0.5,0.4-0.5
		c0,0,0,0,0.1,0c0.2,0,0.4,0.2,0.5,0.4C874.2,655.4,874,655.6,873.7,655.6L873.7,655.6z M869.9,642.4c1.3-1.6,3.2-2.5,5.3-2.4
		c2.3,0,4.4,1.3,5.5,3.3c0.9,1.9,0.7,4.2-0.7,5.8c-1.6,1.8-4.3,2-6.1,0.5c0,0,0,0,0,0c-0.1-0.1-0.2-0.2-0.3-0.2
		c-0.1,0-0.3,0.1-0.4,0.2c-0.9,0.7-2.2,0.6-3-0.2c-0.9-1-1.4-2.4-1.4-3.8C868.8,644.4,869.2,643.3,869.9,642.4z M881.7,655
		c-0.4,0.9-1.3,1.5-2.3,1.5c-0.2,0-0.4,0-0.6-0.1c-0.6-0.2-1.1-0.6-1.3-1.1c-0.3-0.6-0.3-1.2-0.1-1.8c0-0.1,0.1-0.2,0.1-0.2
		c0,0,0.4,0,0.6,0c0.5,0,1,0,1.5,0c0.2,0,0.7,0,0.7,0c-0.3,0.7-0.7,1.4-1.2,1.9c-0.1,0.1-0.1,0.3,0,0.4c0,0,0,0,0,0
		c0.1,0.1,0.3,0.1,0.5,0c0.7-0.7,1.2-1.5,1.5-2.5c0.1,0,0.3,0,0.4-0.1c0,0.3,0,0.6,0,0.8C881.4,654.3,881.5,654.6,881.7,655z
		 M886.2,651.2c0.6,0.4,1,0.9,1.2,1.6c0.4,1.4-0.3,2.9-1.7,3.3c-0.1,0-0.1,0-0.2,0c-1.3,0.3-2.6-0.3-3.2-1.4
		c-0.3-0.6-0.4-1.2-0.3-1.8l0,0c0.5-0.1,0.9-0.2,1.4-0.4c0.3,1,0.8,1.9,1.5,2.6c0.1,0.1,0.4,0.1,0.5,0c0.1-0.1,0.1-0.3,0-0.4
		c0,0,0,0,0,0c-0.6-0.7-1.1-1.5-1.4-2.4c0.4-0.2,0.8-0.4,1.2-0.6C885.5,651.6,886.1,651.2,886.2,651.2L886.2,651.2z M889.4,645.6
		l1.4,0.4l-1.4,0.4c0,0,0-0.1,0-0.1C889.4,646,889.4,645.8,889.4,645.6z M887.7,642.9c0.5,0.7,0.8,1.5,1,2.3c0,0,0,0,0,0
		c0.1,0.5,0.1,1.1,0,1.6c0,0,0,0,0,0c-0.4,1.6-1.4,2.9-2.7,3.7l-0.2,0.1c0,0,0.1-0.2,0.1-0.2c1.6-2.9,1.6-6.3,0.1-9.2l0,0
		C886.6,641.7,887.2,642.2,887.7,642.9z M884.7,640.4l0.1,0.1c0.3,0.4,0.5,0.8,0.7,1.3c1.4,3,1.1,6.5-0.8,9.2
		c-0.1,0.1-0.3,0.4-0.3,0.4l0,0c-0.8,0.4-1.6,0.6-2.4,0.8l-0.1,0c0.2-0.2,0.4-0.4,0.5-0.6c2.7-3.5,2.7-8.3,0.1-11.8
		c0,0-0.2-0.3-0.3-0.4C883.1,639.7,883.9,640,884.7,640.4z M875.2,639.3c1.1-0.2,2.3-0.4,3.4-0.3c0.8,0,1.6,0.1,2.4,0.3
		c0.8,0.8,1.4,1.7,1.8,2.7c0.6,1.3,0.9,2.8,0.8,4.3c-0.1,1.7-0.6,3.3-1.6,4.8c-0.4,0.6-0.8,1.1-1.4,1.6l-0.1,0
		c-1.2,0.2-2.3,0.2-3.5,0.1c-1.9-0.2-3.8-0.8-5.5-1.9c0.6,0,1.3-0.2,1.8-0.6c2.1,1.8,5.3,1.5,7-0.6c0.9-1,1.4-2.3,1.4-3.7
		c0-1-0.2-1.9-0.6-2.8c-1.2-2.3-3.6-3.7-6.2-3.7c-0.1,0-0.3,0-0.3,0C874.9,639.3,875.1,639.3,875.2,639.3L875.2,639.3z"/>
</g>
<g id="bee-8_2_" transform="translate(1386.107 648.231) rotate(179)">
	<path id="Path_18-8_2_" class="st13" d="M1337.7,412.9c0.1,0,0.2-0.1,0.2-0.2c0-0.1,0-0.1-0.1-0.2l-2.7-1.2l-0.3,2L1337.7,412.9z"
		/>
	<path id="Path_33-8_2_" class="st14" d="M1322.5,418.2c0.7-1.3,2.3-1.9,3.7-1.3c1.3,0.6,1.9,2.1,1.3,3.4c0,0,0,0.1-0.1,0.1
		c-0.7,1.3-2.3,1.9-3.7,1.3c-1.3-0.6-1.9-2.1-1.3-3.4C1322.4,418.3,1322.5,418.2,1322.5,418.2z"/>
	<path id="Path_34-8_2_" class="st15" d="M1333.3,418.9c0.3,1.6-0.8,3.1-2.3,3.4c-0.1,0-0.1,0-0.2,0c-1.7,0.2-3.3-1-3.6-2.7
		c-0.3-1.6,0.8-3.1,2.3-3.4c0.1,0,0.1,0,0.2,0C1331.4,416.1,1333,417.2,1333.3,418.9z"/>
	<path id="Path_19-8_2_" class="st16" d="M1329.3,409.9l-0.6,3.8l-2.3,3l0.2,1.4c1.3,0,2.6-0.2,3.8-0.6l2.1-0.9l1.5-2.9l0.4-2.9
		l-0.9-3l-1.4-1.6c-1.1-0.7-2.2-1.3-3.4-1.7l-0.9,1.4L1329.3,409.9z"/>
	<path id="Path_20-8_2_" class="st17" d="M1327.9,405.5c0.2,0.1,0.4,0.1,0.5,0.2c1.2,0.4,2.4,1,3.4,1.7c0.8,0.6,1.5,1.3,2.2,2.1
		l-0.5-1.8l-1.4-1.6l-0.2-0.1c-0.2-0.1-0.4-0.3-0.6-0.4c-0.6-0.3-1.1-0.6-1.7-0.9c-0.3-0.1-0.6-0.2-0.9-0.3L1327.9,405.5z"/>
	<g id="Group_4-8_2_" transform="translate(1.426 0.323)">
		<path id="Path_21-8_2_" class="st18" d="M1331.7,411.8c0.3-2.1-0.1-4.2-1.1-6c2.4,1.7,3.7,4,3.4,6.3c-0.4,2.3-2.3,4.2-5.1,5.1
			C1330.4,415.7,1331.4,413.8,1331.7,411.8z"/>
		<path id="Path_22-8_2_" class="st18" d="M1315.2,405.9c1.6-1.5,3.7-2.4,5.9-2.6c1.2-0.1,2.4-0.1,3.5,0.1c0.9,0.1,1.7,0.3,2.6,0.6
			c1.6,2.1,2.3,4.7,1.9,7.3c-0.4,2.6-1.8,4.9-4,6.4c-0.9,0-1.8,0-2.6-0.2c-2.5-0.3-4.8-1.4-6.7-3c-0.5-0.4-0.9-0.9-1.2-1.4
			L1315.2,405.9z"/>
	</g>
	<path id="Path_23-8_2_" class="st13" d="M1322.3,404.9c1.2-0.1,2.4-0.1,3.5,0.1c0.9,0.1,1.7,0.3,2.6,0.6c0.4,0.1,0.9,0.3,1.3,0.5
		c-0.3-0.6-0.7-1.2-1.1-1.8c-0.1,0-0.2-0.1-0.3-0.1c-1.9-0.6-3.8-0.8-5.8-0.6c-2,0.1-4,0.9-5.5,2.2c-0.1,0.1-0.3,0.3-0.4,0.4
		l-0.1,1.2C1318.1,406,1320.2,405.1,1322.3,404.9z"/>
	<path id="Path_24-8_2_" class="st16" d="M1315,409.4c0.2-1.2,0.7-2.3,1.6-3.1c3.3-3.4,9.6-2.2,11.2,2.4c0.3,0.9,0.4,1.8,0.3,2.7
		c-0.2,1.3-0.8,2.4-1.8,3.3c-1.9,1.7-4.8,1.6-6.6-0.3c0,0-0.1-0.1-0.1-0.1l-0.1-0.1l-0.1,0.1l0,0c-1.1,0.7-2.6,0.4-3.4-0.7
		C1315.2,412.3,1314.8,410.8,1315,409.4z"/>
	<path id="Path_25-8_2_" class="st17" d="M1315,409.5c0,0.2,0,0.3,0,0.5c0.3-0.9,0.8-1.8,1.4-2.5c1.6-1.5,3.7-2.4,5.9-2.6
		c0.6-0.1,1.2-0.1,1.8-0.1c-2.6-1.1-5.6-0.6-7.6,1.4c-0.8,0.8-1.3,1.7-1.5,2.8C1315,409.2,1315,409.4,1315,409.5z"/>
	<path id="Path_26-8_2_" class="st13" d="M1335.3,413.1c0-0.1,0-0.1,0-0.2c0,0,0,0,0-0.1c0.1-0.6,0.2-1.3,0.1-1.9
		c-0.2-1.3-0.9-2.5-1.8-3.4c-0.5-0.5-1-1-1.6-1.4c0.4,0.7,0.6,1.4,0.8,2.1C1334.4,409.4,1335.2,411.2,1335.3,413.1z"/>
	<path id="Path_265_2_" class="st16" d="M1319.1,418.9c0.4,0,0.7,0.4,0.7,0.9c-0.1,0.4-0.5,0.7-0.9,0.6c-0.4,0-0.7-0.4-0.7-0.9
		C1318.3,419.1,1318.7,418.8,1319.1,418.9z"/>
	<path id="Path_27-8_2_" class="st17" d="M1318.2,419.7c0.1-0.3,0.4-0.4,0.8-0.4c0.4,0,0.7,0.3,0.8,0.7c0-0.1,0.1-0.2,0.1-0.3
		c0-0.4-0.4-0.8-0.8-0.8c-0.4,0-0.8,0.3-0.8,0.7c0,0,0,0,0,0C1318.2,419.6,1318.2,419.7,1318.2,419.7z"/>
	<path id="Path_266_2_" class="st16" d="M1316.4,417.9c0.4,0,0.7,0.4,0.7,0.9c-0.1,0.4-0.5,0.7-0.9,0.6c-0.4,0-0.7-0.4-0.7-0.9
		C1315.5,418.1,1315.9,417.8,1316.4,417.9z"/>
	<path id="Path_28-8_2_" class="st17" d="M1315.5,418.7c0.1-0.3,0.4-0.4,0.8-0.4c0.4,0,0.7,0.3,0.8,0.7c0-0.1,0.1-0.2,0.1-0.3
		c0-0.4-0.4-0.8-0.8-0.8c-0.4,0-0.8,0.3-0.8,0.7c0,0,0,0,0,0C1315.4,418.7,1315.4,418.7,1315.5,418.7z"/>
	<path id="Path_29-8_2_" d="M1323.3,411.1c0.2,0,0.4-0.1,0.4-0.3c0,0,0,0,0,0l0.1-0.5c0-0.2-0.1-0.4-0.3-0.4c-0.2,0-0.4,0.1-0.4,0.3
		l-0.1,0.5C1323,410.9,1323.1,411,1323.3,411.1C1323.3,411.1,1323.3,411.1,1323.3,411.1z"/>
	<path id="Path_30-8_2_" d="M1316.8,410.1c0.2,0,0.4-0.1,0.4-0.3c0,0,0,0,0,0l0.1-0.5c0-0.2-0.1-0.4-0.3-0.4c-0.2,0-0.4,0.1-0.4,0.3
		l-0.1,0.5C1316.5,409.9,1316.6,410.1,1316.8,410.1C1316.8,410.1,1316.8,410.1,1316.8,410.1z"/>
	<path id="Path_31-8_2_" d="M1319.1,409.8c0.1,0.1,0.3,0.2,0.5,0c0.2-0.1,0.4-0.2,0.6-0.1c0.2,0,0.4,0.1,0.5,0.3
		c0.1,0.2,0.3,0.2,0.5,0.1c0.1-0.1,0.2-0.3,0.1-0.4c0,0,0,0,0,0c-0.2-0.3-0.6-0.5-1-0.6c-0.4-0.1-0.8,0-1.1,0.3
		C1319,409.5,1319,409.7,1319.1,409.8C1319.1,409.8,1319.1,409.8,1319.1,409.8z"/>
	<path id="Path_32-8_2_" d="M1315.7,413.6c0.4,0.5,0.8,1,1.2,1.5c0.2,0.2,0.4,0.4,0.7,0.6c-0.2,0.7-0.5,1.4-0.9,2
		c-0.1,0-0.2-0.1-0.3-0.1c-0.6-0.1-1.2,0.3-1.3,0.9c0,0,0,0.1,0,0.1c0,0.6,0.4,1,1,1.1c0.6,0.1,1.2-0.3,1.3-0.9c0,0,0-0.1,0-0.1
		c0-0.2-0.1-0.4-0.2-0.6c0.4-0.6,0.8-1.2,1-1.9c0.6,0.4,1.3,0.8,2,1.1c-0.2,0.5-0.4,1-0.7,1.4c-0.1,0-0.2-0.1-0.3-0.1
		c-0.3-0.1-0.7,0-1,0.3c-0.2,0.2-0.4,0.5-0.4,0.8c0,0.6,0.4,1,1,1.1c0.6,0.1,1.2-0.3,1.3-0.9c0,0,0-0.1,0-0.1c0-0.2-0.1-0.4-0.2-0.6
		c0.4-0.5,0.6-1,0.8-1.6c0.4,0.2,0.9,0.3,1.4,0.4c0,0,0,0.1-0.1,0.1c-0.7,1.4-0.2,3.2,1.2,3.9c0.1,0,0.1,0.1,0.2,0.1
		c1.3,0.6,2.9,0.2,3.8-0.9c0.6,0.9,1.5,1.4,2.5,1.6c0.3,0,0.6,0.1,1,0c1.8-0.2,3.1-1.8,2.9-3.6c0-0.1,0-0.1,0-0.2
		c-0.1-0.8-0.5-1.5-1.1-2c0.6-0.3,1.1-0.7,1.5-1.2c0.6-0.6,1.1-1.3,1.4-2.2l2.3-0.3c0.3,0,0.5-0.2,0.5-0.5c0-0.2-0.1-0.4-0.3-0.5
		l-2.1-1c-0.1-0.9-0.3-1.7-0.7-2.5c-0.7-1.2-1.7-2.2-2.8-3c-1.1-0.8-2.3-1.3-3.5-1.8c-0.9-0.3-1.7-0.5-2.6-0.6
		c-1.2-0.2-2.4-0.2-3.6-0.1c-2.3,0.1-4.5,1.1-6.2,2.7l0,0C1314.3,408.1,1314.1,411.3,1315.7,413.6z M1316.6,419
		c-0.1,0.1-0.2,0.1-0.3,0.1c0,0,0,0-0.1,0c-0.2,0-0.4-0.2-0.4-0.4c0-0.2,0.2-0.4,0.5-0.4c0,0,0,0,0,0c0,0,0,0,0.1,0
		c0.2,0,0.4,0.2,0.4,0.4C1316.7,418.8,1316.7,418.9,1316.6,419z M1319,420c-0.3,0-0.5-0.2-0.5-0.5c0-0.3,0.2-0.4,0.5-0.4
		c0,0,0,0,0.1,0c0.2,0,0.4,0.2,0.4,0.4C1319.5,419.9,1319.2,420.1,1319,420L1319,420z M1316.8,406.5c1.5-1.4,3.5-2.1,5.5-1.7
		c2.3,0.3,4.2,1.8,5.1,4c0.7,2,0.1,4.2-1.4,5.7c-1.8,1.6-4.5,1.4-6.1-0.3c0,0,0,0,0,0c-0.1-0.1-0.2-0.2-0.3-0.2
		c-0.1,0-0.3,0-0.4,0.1c-1,0.6-2.3,0.3-2.9-0.6c-0.8-1.1-1.1-2.5-0.9-3.9C1315.5,408.3,1316,407.3,1316.8,406.5z M1327,420.4
		c-0.5,0.9-1.5,1.3-2.5,1.2c-0.2,0-0.4-0.1-0.6-0.2c-0.6-0.2-1-0.7-1.2-1.3c-0.2-0.6-0.2-1.3,0.1-1.8c0-0.1,0.1-0.1,0.1-0.2
		c0,0,0.4,0.1,0.6,0.1c0.5,0.1,1,0.1,1.4,0.2c0.2,0,0.7,0,0.7,0c-0.3,0.7-0.9,1.3-1.5,1.7c-0.1,0.1-0.2,0.3-0.1,0.4c0,0,0,0,0,0
		c0.1,0.1,0.3,0.2,0.5,0.1c0.8-0.6,1.4-1.3,1.8-2.2c0.1,0,0.3,0,0.4,0c-0.1,0.3-0.1,0.5-0.1,0.8C1326.8,419.6,1326.8,420,1327,420.4
		z M1331.9,417.2c0.5,0.4,0.9,1.1,1,1.8c0.3,1.4-0.7,2.8-2.1,3.1c-0.1,0-0.1,0-0.2,0c-1.3,0.1-2.5-0.6-3-1.8
		c-0.2-0.6-0.3-1.3-0.1-1.9l0,0c0.5,0,1-0.1,1.4-0.2c0.2,1,0.6,2,1.2,2.8c0.1,0.1,0.3,0.2,0.5,0.1c0.1-0.1,0.2-0.3,0.1-0.4
		c0,0,0,0,0,0c-0.6-0.8-0.9-1.6-1.1-2.6c0.4-0.1,0.9-0.2,1.3-0.4C1331.1,417.6,1331.9,417.2,1331.9,417.2L1331.9,417.2z
		 M1335.8,412.1l1.3,0.6l-1.5,0.2c0,0,0-0.1,0-0.1C1335.8,412.5,1335.8,412.3,1335.8,412.1z M1334.4,409.2c0.4,0.7,0.7,1.6,0.7,2.4
		c0,0,0,0,0,0c0,0.5-0.1,1.1-0.2,1.6c0,0,0,0,0,0c-0.6,1.5-1.7,2.7-3.2,3.4l-0.2,0.1c0,0,0.1-0.2,0.2-0.2c1.9-2.6,2.4-6.1,1.2-9.2
		l0,0C1333.5,407.8,1334,408.4,1334.4,409.2z M1331.8,406.3l0.1,0.1c0.2,0.4,0.4,0.9,0.6,1.4c1,3.1,0.3,6.6-1.9,9
		c-0.1,0.1-0.3,0.3-0.3,0.4l0,0c-0.8,0.3-1.6,0.4-2.5,0.5l-0.1,0c0.2-0.2,0.4-0.4,0.6-0.6c3.1-3.1,3.7-7.9,1.6-11.7
		c0,0-0.2-0.3-0.2-0.4C1330.3,405.4,1331,405.8,1331.8,406.3z M1322.6,404c1.1-0.1,2.3-0.1,3.4,0.1c0.8,0.1,1.6,0.3,2.4,0.6
		c0.7,0.9,1.2,1.8,1.5,2.9c0.4,1.4,0.5,2.9,0.3,4.3c-0.3,1.7-1.1,3.2-2.2,4.5c-0.5,0.5-1,1-1.5,1.4l-0.1,0c-1.2,0-2.3-0.1-3.5-0.4
		c-1.9-0.4-3.7-1.3-5.2-2.5c0.6,0.1,1.3,0,1.8-0.3c1.9,2,5,2.2,7.1,0.3c1-0.9,1.6-2.1,1.9-3.5c0.1-1,0-1.9-0.3-2.8
		c-0.9-2.4-3.1-4.1-5.6-4.5c-0.1,0-0.3,0-0.3,0C1322.3,404,1322.4,404,1322.6,404L1322.6,404z"/>
</g>
</svg>
